<svg width="72" height="72" viewBox="0 0 72 72" fill="none" xmlns="http://www.w3.org/2000/svg">
<rect x="0.5" y="0.5" width="71" height="71" rx="7.5" fill="white"/>
<path d="M58.4999 36.55C58.4999 34.9999 58.3499 33.3999 58.0999 31.8999H36.4497V40.75H48.8498C48.3498 43.6 46.6998 46.1001 44.2498 47.7001L51.6499 53.4501C55.9999 49.4001 58.4999 43.5 58.4999 36.55Z" fill="#4280EF"/>
<path d="M36.4497 58.9504C42.6498 58.9504 47.8498 56.9004 51.6499 53.4003L44.2498 47.7003C42.1997 49.1003 39.5497 49.9003 36.4497 49.9003C30.4496 49.9003 25.3996 45.8503 23.5495 40.4502L15.9495 46.3003C19.8495 54.0503 27.7496 58.9504 36.4497 58.9504Z" fill="#34A353"/>
<path d="M23.5496 40.3999C22.5996 37.5498 22.5996 34.4498 23.5496 31.5998L15.9495 25.6997C12.6995 32.1998 12.6995 39.8499 15.9495 46.2999L23.5496 40.3999Z" fill="#F6B704"/>
<path d="M36.4497 22.1498C39.6997 22.0998 42.8998 23.3498 45.2498 25.5998L51.7999 18.9998C47.6498 15.0997 42.1497 12.9997 36.4497 13.0497C27.7496 13.0497 19.8495 17.9498 15.9495 25.6998L23.5495 31.5999C25.3996 26.1498 30.4496 22.1498 36.4497 22.1498Z" fill="#E54335"/>
<rect x="0.5" y="0.5" width="71" height="71" rx="7.5" stroke="#E2E8F0"/>
</svg>
