<svg width="72" height="72" viewBox="0 0 72 72" fill="none" xmlns="http://www.w3.org/2000/svg">
<rect width="72" height="72" rx="8" fill="#FEE500"/>
<path fill-rule="evenodd" clip-rule="evenodd" d="M31.2656 52.4467C32.8319 52.6915 34.4148 52.8142 36 52.8136C49.3581 52.8136 60.1875 44.2615 60.1875 33.7117C60.1875 23.162 49.3581 14.6099 36 14.6099C22.6419 14.6099 11.8125 23.162 11.8125 33.7117C11.8125 40.4961 16.2916 46.4537 23.0412 49.8427L20.7688 58.5033C20.7373 58.6234 20.7434 58.7502 20.7863 58.8666C20.8293 58.9831 20.9069 59.0836 21.0088 59.1545C21.1107 59.2254 21.2318 59.2633 21.356 59.2631C21.4801 59.2628 21.6011 59.2245 21.7027 59.1532L31.2656 52.4467ZM49.6816 33.4459L53.0851 30.1565C53.2977 29.9468 53.4189 29.6616 53.4224 29.363C53.4259 29.0645 53.3115 28.7765 53.1039 28.5619C52.8963 28.3472 52.6125 28.2231 52.3139 28.2165C52.0154 28.21 51.7263 28.3215 51.5095 28.5268L47.2655 32.9406V29.281C47.2655 28.9589 47.1375 28.6501 46.9098 28.4224C46.6821 28.1946 46.3732 28.0667 46.0512 28.0667C45.7292 28.0667 45.4203 28.1946 45.1926 28.4224C44.9649 28.6501 44.8369 28.9589 44.8369 29.281V38.912C44.8369 39.234 44.9649 39.5429 45.1926 39.7706C45.4203 39.9983 45.7292 40.1262 46.0512 40.1262C46.3732 40.1262 46.6821 39.9983 46.9098 39.7706C47.1375 39.5429 47.2655 39.234 47.2655 38.912V35.7814L48.0444 35.0284L51.4141 39.5614C51.6095 39.8119 51.8965 39.9746 52.2119 40.0135C52.5272 40.0524 52.8451 39.9645 53.0957 39.769C53.3462 39.5736 53.5088 39.2866 53.5478 38.9712C53.5867 38.6559 53.4988 38.3379 53.3033 38.0874L49.6816 33.4459ZM32.5662 29.2764C32.4381 28.9354 32.209 28.6416 31.9096 28.4343C31.6102 28.2269 31.2546 28.1158 30.8904 28.1158C30.5262 28.1158 30.1706 28.2269 29.8712 28.4343C29.5717 28.6416 29.3427 28.9354 29.2146 29.2764L25.7638 38.5098C25.6612 38.7944 25.675 39.108 25.8022 39.3825C25.9293 39.657 26.1595 39.8703 26.4429 39.9762C26.7263 40.0821 27.04 40.072 27.316 39.9482C27.5921 39.8243 27.8081 39.5966 27.9174 39.3145L28.4684 37.6514H33.0935C33.1647 37.6514 33.2356 37.6442 33.3053 37.6301L33.8634 39.3145C33.9145 39.4582 33.9936 39.5903 34.0963 39.7031C34.1989 39.8159 34.323 39.9071 34.4612 39.9715C34.5995 40.0358 34.7492 40.0721 34.9016 40.078C35.0539 40.084 35.206 40.0595 35.3488 40.0061C35.4917 39.9527 35.6225 39.8714 35.7336 39.767C35.8447 39.6626 35.934 39.5371 35.9961 39.3978C36.0582 39.2585 36.092 39.1083 36.0955 38.9558C36.099 38.8034 36.0722 38.6517 36.0165 38.5098L32.5662 29.2764ZM29.4859 35.5784L31.122 30.64L32.7581 35.5784H29.4859ZM27.2538 29.281C27.2538 28.9761 27.1327 28.6837 26.9171 28.4681C26.7016 28.2525 26.4092 28.1314 26.1043 28.1314H19.0836C18.7787 28.1314 18.4863 28.2525 18.2707 28.4681C18.0551 28.6837 17.934 28.9761 17.934 29.281C17.934 29.5859 18.0551 29.8783 18.2707 30.0939C18.4863 30.3095 18.7787 30.4306 19.0836 30.4306H21.4443V38.9116C21.4443 39.2165 21.5654 39.5089 21.781 39.7244C21.9966 39.94 22.2889 40.0611 22.5938 40.0611C22.8986 40.0611 23.191 39.94 23.4066 39.7244C23.6221 39.5089 23.7432 39.2165 23.7432 38.9116V30.4306H26.1051C26.4099 30.4303 26.702 30.3091 26.9174 30.0935C27.1328 29.878 27.2538 29.5857 27.2538 29.281ZM39.5127 37.6629H42.778V37.6636C43.0828 37.6636 43.3752 37.7847 43.5908 38.0002C43.8063 38.2158 43.9274 38.5082 43.9274 38.813C43.9274 39.1179 43.8063 39.4103 43.5908 39.6258C43.3752 39.8414 43.0828 39.9625 42.778 39.9625H38.5991C38.2317 39.9622 37.8795 39.8162 37.6198 39.5565C37.3601 39.2967 37.214 38.9445 37.2138 38.5772V29.281C37.2138 28.9761 37.3349 28.6838 37.5504 28.4682C37.766 28.2526 38.0584 28.1315 38.3632 28.1315C38.6681 28.1315 38.9604 28.2526 39.176 28.4682C39.3916 28.6838 39.5127 28.9761 39.5127 29.281V37.6629Z" fill="#392020"/>
</svg>
